<svg width="58" height="58" viewBox="0 0 58 58" fill="none" xmlns="http://www.w3.org/2000/svg">
<g clip-path="url(#clip0_114_127)">
<g clip-path="url(#clip1_114_127)">
<path d="M0 26.5143C0 17.2334 0 12.593 1.80618 9.04816C3.39494 5.93004 5.93004 3.39494 9.04816 1.80618C12.593 0 17.2334 0 26.5143 0H31.4857C40.7666 0 45.407 0 48.9518 1.80618C52.07 3.39494 54.6051 5.93004 56.1938 9.04816C58 12.593 58 17.2334 58 26.5143V31.4857C58 40.7666 58 45.407 56.1938 48.9518C54.6051 52.07 52.07 54.6051 48.9518 56.1938C45.407 58 40.7666 58 31.4857 58H26.5143C17.2334 58 12.593 58 9.04816 56.1938C5.93004 54.6051 3.39494 52.07 1.80618 48.9518C0 45.407 0 40.7666 0 31.4857V26.5143Z" fill="url(#paint0_linear_114_127)"/>
<circle cx="29" cy="29" r="18.125" fill="white"/>
<g filter="url(#filter0_d_114_127)">
<path d="M50.75 29C50.75 41.0122 41.0122 50.75 29 50.75C16.9878 50.75 7.25 41.0122 7.25 29C7.25 16.9878 16.9878 7.25 29 7.25C41.0122 7.25 50.75 16.9878 50.75 29Z" fill="white" fill-opacity="0.5" shape-rendering="crispEdges"/>
</g>
<g filter="url(#filter1_d_114_127)">
<path d="M23.5252 14.8149H34.4739V28.9384H39.9483L28.9996 42.5328L18.0508 28.9384H23.5252V14.8149Z" fill="url(#paint1_linear_114_127)"/>
</g>
<g style="mix-blend-mode:saturation">
<path d="M0 26.5143C0 17.2334 0 12.593 1.80618 9.04816C3.39494 5.93004 5.93004 3.39494 9.04816 1.80618C12.593 0 17.2334 0 26.5143 0H31.4857C40.7666 0 45.407 0 48.9518 1.80618C52.07 3.39494 54.6051 5.93004 56.1938 9.04816C58 12.593 58 17.2334 58 26.5143V31.4857C58 40.7666 58 45.407 56.1938 48.9518C54.6051 52.07 52.07 54.6051 48.9518 56.1938C45.407 58 40.7666 58 31.4857 58H26.5143C17.2334 58 12.593 58 9.04816 56.1938C5.93004 54.6051 3.39494 52.07 1.80618 48.9518C0 45.407 0 40.7666 0 31.4857V26.5143Z" fill="#EEFF00"/>
</g>
</g>
</g>
<defs>
<filter id="filter0_d_114_127" x="4.25" y="4.25" width="49.5" height="49.5" filterUnits="userSpaceOnUse" color-interpolation-filters="sRGB">
<feFlood flood-opacity="0" result="BackgroundImageFix"/>
<feColorMatrix in="SourceAlpha" type="matrix" values="0 0 0 0 0 0 0 0 0 0 0 0 0 0 0 0 0 0 127 0" result="hardAlpha"/>
<feOffset/>
<feGaussianBlur stdDeviation="1.5"/>
<feComposite in2="hardAlpha" operator="out"/>
<feColorMatrix type="matrix" values="0 0 0 0 1 0 0 0 0 1 0 0 0 0 1 0 0 0 0.25 0"/>
<feBlend mode="plus-lighter" in2="BackgroundImageFix" result="effect1_dropShadow_114_127"/>
<feBlend mode="normal" in="SourceGraphic" in2="effect1_dropShadow_114_127" result="shape"/>
</filter>
<filter id="filter1_d_114_127" x="13.8008" y="12.0649" width="30.3975" height="36.2178" filterUnits="userSpaceOnUse" color-interpolation-filters="sRGB">
<feFlood flood-opacity="0" result="BackgroundImageFix"/>
<feColorMatrix in="SourceAlpha" type="matrix" values="0 0 0 0 0 0 0 0 0 0 0 0 0 0 0 0 0 0 127 0" result="hardAlpha"/>
<feOffset dy="1.5"/>
<feGaussianBlur stdDeviation="2.125"/>
<feComposite in2="hardAlpha" operator="out"/>
<feColorMatrix type="matrix" values="0 0 0 0 0.939681 0 0 0 0 0 0 0 0 0 0 0 0 0 0.35 0"/>
<feBlend mode="normal" in2="BackgroundImageFix" result="effect1_dropShadow_114_127"/>
<feBlend mode="normal" in="SourceGraphic" in2="effect1_dropShadow_114_127" result="shape"/>
</filter>
<linearGradient id="paint0_linear_114_127" x1="0" y1="0" x2="65.107" y2="63.839" gradientUnits="userSpaceOnUse">
<stop stop-color="#EB6E00"/>
<stop offset="1" stop-color="#C10077"/>
</linearGradient>
<linearGradient id="paint1_linear_114_127" x1="28.9996" y1="14.8149" x2="28.9996" y2="42.5328" gradientUnits="userSpaceOnUse">
<stop stop-color="#EE6525"/>
<stop offset="1" stop-color="#F70D96"/>
</linearGradient>
<clipPath id="clip0_114_127">
<rect width="58" height="58" fill="white"/>
</clipPath>
<clipPath id="clip1_114_127">
<rect width="58" height="58" fill="white"/>
</clipPath>
</defs>
</svg>
